<svg xmlns="http://www.w3.org/2000/svg" xmlns:xlink="http://www.w3.org/1999/xlink" >
    <symbol id="twitter" viewBox="0 0 29 14">
        <rect width="29" height="14" fill="#F5F5F5"/>
        <g clip-path="url(#clip0_1_131)">
            <path d="M22 2.902C21.4843 3.12989 20.9313 3.28466 20.3503 3.35389C20.943 2.99844 21.3988 2.43533 21.6127 1.76566C21.0589 2.09466 20.4437 2.33344 19.7895 2.46178C19.2653 1.90411 18.5179 1.55566 17.6927 1.55566C16.1068 1.55566 14.8203 2.84055 14.8203 4.42722C14.8203 4.652 14.8452 4.87133 14.895 5.08211C12.5072 4.96155 10.3909 3.81822 8.97454 2.08144C8.72721 2.50533 8.58565 2.99922 8.58565 3.52422C8.58565 4.52133 9.09276 5.40022 9.86354 5.91511C9.39299 5.90033 8.94965 5.77122 8.56232 5.55655C8.56232 5.56822 8.56232 5.57989 8.56232 5.59233C8.56232 6.98378 9.55243 8.14578 10.8661 8.40866C10.625 8.474 10.3714 8.509 10.1093 8.509C9.92499 8.509 9.74454 8.49266 9.56954 8.45844C9.93432 9.60022 10.996 10.4301 12.2521 10.4534C11.2698 11.2234 10.0315 11.6823 8.68599 11.6823C8.45343 11.6823 8.22554 11.6683 8.00076 11.6411C9.27165 12.457 10.7813 12.9314 12.4038 12.9314C17.6864 12.9314 20.5759 8.55489 20.5759 4.76011C20.5759 4.63489 20.5728 4.51044 20.5665 4.38755C21.1273 3.98466 21.615 3.47833 22 2.902Z"
                  fill="black"/>
        </g>
        <defs>
            <clipPath id="clip0_1_131">
                <rect width="14" height="14" fill="white" transform="translate(8)"/>
            </clipPath>
        </defs>
    </symbol>
    <symbol id="in" viewBox="0 0 29 14">
        <rect width="29" height="14" fill="#F5F5F5"/>
        <g clip-path="url(#clip0_1_135)">
            <path d="M11.1706 1.49635C11.1706 2.32318 10.5604 2.99271 9.55565 2.99271C8.61024 2.99353 8 2.324 8 1.49635C8 0.649765 8.63 0 9.59518 0C10.5595 0 11.1508 0.649765 11.1706 1.49635ZM8.07906 13.804V4.17447H11.0718V13.8032H8.07906V13.804Z"
                  fill="black"/>
            <path d="M12.8629 7.24709C12.8629 6.04556 12.8242 5.04168 12.7847 4.17533H15.3838L15.5221 5.51439H15.5806C15.9742 4.88356 16.9394 3.95874 18.5535 3.95874C20.5226 3.95792 22 5.27721 22 8.11345V13.804H19.0065V8.46756C19.0065 7.22733 18.5741 6.38074 17.4903 6.38074C16.6627 6.38074 16.1711 6.95145 15.9553 7.50321C15.8754 7.70003 15.8565 7.97592 15.8565 8.25098V13.804H12.8629V7.24709Z"
                  fill="black"/>
        </g>
        <defs>
            <clipPath id="clip0_1_135">
                <rect width="14" height="14" fill="white" transform="translate(8)"/>
            </clipPath>
        </defs>
    </symbol>
    <symbol id="mail" viewBox="0 0 29 14">
        <rect width="29" height="14" fill="#F5F5F5"/>
        <path d="M14.6311 10.2562L12.4075 8.18007C12.2321 8.01619 11.948 8.01619 11.7726 8.18007L8 11.6949V12.1734C8 12.6197 8.39118 12.9829 8.86882 12.9829H21.0282C21.5059 12.9829 21.8971 12.6197 21.8971 12.1734V11.6949L18.1245 8.17843C17.9482 8.01619 17.6633 8.01619 17.4895 8.17843L15.266 10.2545C15.0906 10.4193 14.8065 10.4193 14.6311 10.2562ZM19.3573 7.0296L21.58 9.10572C21.7546 9.2696 21.8971 9.20702 21.8971 8.96737V4.50055C21.8971 4.26007 21.7546 4.19831 21.58 4.36219L19.3573 6.43831C19.1811 6.60137 19.1811 6.86572 19.3573 7.0296ZM8.86882 0.823486C8.39118 0.823486 8 1.18831 8 1.63384V1.7796L14.5973 7.95937C14.7719 8.12325 15.0552 8.12325 15.2298 7.95937L21.8971 1.70631V1.63384C21.8971 1.18831 21.5059 0.823486 21.0282 0.823486H8.86882ZM8 4.50055V8.96737C8 9.20702 8.14247 9.2696 8.31706 9.10572L10.5398 7.0296C10.716 6.86572 10.716 6.60137 10.5398 6.43749L8.31706 4.36219C8.14247 4.19831 8 4.26007 8 4.50055Z"
              fill="black"/>
    </symbol>
    <symbol id="instagram" viewBox="0 0 29 14">
        <rect width="29" height="14" fill="#F5F5F5"/>
        <g clip-path="url(#clip0_1_169)">
            <path d="M19.2313 6.99918C19.2313 9.33635 17.3347 11.2313 14.9984 11.2313C12.6612 11.2313 10.7671 9.33635 10.7671 6.99918C10.7671 6.72082 10.7942 6.44906 10.8461 6.18553H8V11.8111C8 13.0192 8.97918 13.9984 10.1873 13.9984H19.8111C21.0167 13.9984 21.9984 13.0192 21.9984 11.8111V6.18553H19.1522C19.2041 6.44906 19.2313 6.72082 19.2313 6.99918ZM19.8111 0H10.1873C8.97918 0 8 0.979176 8 2.18729V4.55741H11.5436C12.3095 3.47447 13.572 2.76706 14.9984 2.76706C16.4264 2.76706 17.6888 3.47365 18.4531 4.55741H21.9984V2.18729C21.9984 0.979176 21.0167 0 19.8111 0ZM20.8808 2.702C20.8808 2.91694 20.7038 3.09318 20.4896 3.09318H19.3169C19.1012 3.09318 18.9266 2.91776 18.9266 2.702V1.53012C18.9266 1.31518 19.1012 1.13894 19.3169 1.13894H20.4896C20.7038 1.13894 20.8808 1.31435 20.8808 1.53012V2.702ZM17.6024 6.99918C17.6024 5.56047 16.4371 4.39435 14.9984 4.39435C13.5613 4.39435 12.3944 5.56129 12.3944 6.99918C12.3944 8.43706 13.5613 9.60235 14.9984 9.60235C16.4371 9.60235 17.6024 8.43706 17.6024 6.99918Z" fill="black"/>
        </g>
        <defs>
            <clipPath id="clip0_1_169">
                <rect width="14" height="14" fill="white" transform="translate(8)"/>
            </clipPath>
        </defs>
    </symbol>
    <symbol id="be" viewBox="0 0 29 14">
            <rect width="29" height="14" fill="#F5F5F5"/>
            <path d="M13.6132 6.57353C13.6132 6.57353 14.9292 6.47141 14.9292 4.86388C14.93 3.25553 13.8528 2.4707 12.4891 2.4707H8V11.4571H12.4891C12.4891 11.4571 15.2289 11.5476 15.2289 8.80364C15.2289 8.80364 15.3484 6.57353 13.6132 6.57353ZM9.97812 4.06835H12.4882C12.4882 4.06835 13.0985 4.06835 13.0985 5.00388C13.0985 5.93859 12.7394 6.07447 12.3326 6.07447H9.97812V4.06835ZM12.3614 9.86023H9.97812V7.458H12.4882C12.4882 7.458 13.3974 7.44647 13.3974 8.69164C13.3982 9.74329 12.7188 9.852 12.3614 9.86023ZM18.8829 4.75764C15.5666 4.75764 15.5699 8.20906 15.5699 8.20906C15.5699 8.20906 15.3418 11.6456 18.8829 11.6456C18.8829 11.6456 21.8345 11.8219 21.8345 9.25576H20.3175C20.3175 9.25576 20.3678 10.2226 18.934 10.2226C18.934 10.2226 17.4146 10.3288 17.4146 8.65788H21.8855C21.8855 8.65706 22.3739 4.75764 18.8829 4.75764ZM20.2327 7.458H17.3998C17.3998 7.458 17.5851 6.07447 18.9175 6.07447C20.2484 6.07364 20.2327 7.458 20.2327 7.458ZM20.5852 3.00023H17.0275V4.10788H20.5852V3.00023Z" fill="black"/>
    </symbol>
    <symbol id="ball" viewBox="0 0 29 14" >
        <rect width="29" height="14" fill="#F5F5F5"/>
        <g clip-path="url(#clip0_1_181)">
            <path d="M14.5256 4.92882C13.5144 3.13106 12.4331 1.666 12.3532 1.55894C10.7226 2.33059 9.50541 3.83271 9.12576 5.64282C9.27894 5.64612 11.7166 5.67494 14.5256 4.92882ZM15.2536 6.89376C15.3302 6.86906 15.4076 6.846 15.4842 6.82459C15.3376 6.49188 15.1771 6.15918 15.0091 5.82976C11.9982 6.73153 9.10682 6.66647 9.00471 6.66318C9.00306 6.72494 9.00059 6.78671 9.00059 6.84929C9.00059 8.35306 9.56882 9.72341 10.5011 10.7602C10.5002 10.7586 10.4978 10.7545 10.4978 10.7545C10.4978 10.7545 12.0979 7.91494 15.2536 6.89376ZM11.2538 11.4602L11.2546 11.4569C11.2118 11.4232 11.1656 11.3927 11.1228 11.3565C11.2002 11.4191 11.2538 11.4602 11.2538 11.4602ZM13.4476 1.17024C13.4419 1.17188 13.4378 1.17271 13.432 1.17353C13.4411 1.17188 13.4476 1.17106 13.4476 1.17024ZM18.7116 2.45906C17.6822 1.55153 16.33 0.999765 14.8493 0.999765C14.3733 0.999765 13.9129 1.05741 13.4715 1.16447C13.5605 1.28224 14.6574 2.74071 15.658 4.57635C17.8626 3.75035 18.696 2.48376 18.7116 2.45906ZM14.8485 13.6978C11.0668 13.6978 8 10.6309 8 6.84847C8 3.066 11.0668 0 14.8485 0C18.6301 0 21.6969 3.06682 21.6969 6.84847C21.6969 10.6301 18.6309 13.6978 14.8485 13.6978ZM15.8433 7.80624C12.4108 9.002 11.2776 11.4092 11.2546 11.4578C12.2469 12.2335 13.4921 12.6996 14.8485 12.6996C15.658 12.6996 16.4305 12.5333 17.1313 12.236C17.0448 11.7238 16.7047 9.93176 15.882 7.79471C15.8696 7.798 15.8573 7.80212 15.8433 7.80624ZM16.1068 5.44847C16.2444 5.72682 16.3745 6.01094 16.4964 6.29671C16.54 6.39718 16.582 6.49847 16.6224 6.59812C18.6425 6.34447 20.6321 6.77518 20.6964 6.79C20.6824 5.40153 20.1866 4.13 19.3664 3.13353C19.354 3.15165 18.416 4.50553 16.1068 5.44847ZM16.9781 7.52294C17.7465 9.63282 18.0586 11.3507 18.1171 11.6999C19.4298 10.8129 20.3645 9.408 20.6247 7.77659C20.5078 7.73953 18.8698 7.21988 16.9781 7.52294Z" fill="black"/>
        </g>
        <defs>
            <clipPath id="clip0_1_181">
                <rect width="14" height="14" fill="white" transform="translate(8)"/>
            </clipPath>
        </defs>
    </symbol>
    <symbol id="facebook" viewBox="0 0 29 14">
        <rect width="29" height="14" fill="#F5F5F5"/>
        <g clip-path="url(#clip0_1_194)">
            <path d="M20.25 0H9.75C8.78729 0 8 0.788118 8 1.75V12.25C8 13.2135 8.78729 14 9.75 14H15.0609V8.97976H13.3834V6.79329H15.0609V5.698C15.0609 4.00894 16.3069 2.68635 17.898 2.68635H19.4438V5.15529H18.0611C17.7004 5.15529 17.5925 5.36282 17.5925 5.65024V6.79329H19.4438V8.97976H17.5925V14H20.25C21.2135 14 22 13.2135 22 12.25V1.75C22 0.788118 21.2135 0 20.25 0Z" fill="black"/>
        </g>
        <defs>
            <clipPath id="clip0_1_194">
                <rect width="14" height="14" fill="white" transform="translate(8)"/>
            </clipPath>
        </defs>
    </symbol>
    <symbol id="facebook1" viewBox="0 0 14 14">
            <path d="M12.25 0H1.75C0.787294 0 0 0.788118 0 1.75V12.25C0 13.2135 0.787294 14 1.75 14H7.06094V8.97976H5.38341V6.79329H7.06094V5.698C7.06094 4.00894 8.30694 2.68635 9.898 2.68635H11.4438V5.15529H10.0611C9.70035 5.15529 9.59247 5.36282 9.59247 5.65024V6.79329H11.4438V8.97976H9.59247V14H12.25C13.2135 14 14 13.2135 14 12.25V1.75C14 0.788118 13.2135 0 12.25 0Z" fill="black"/>
    </symbol>
    <symbol id="twitter1" viewBox="0 0 14 12">
            <path d="M14 1.902C13.4843 2.12989 12.9313 2.28466 12.3503 2.35389C12.943 1.99844 13.3988 1.43533 13.6127 0.765664C13.0589 1.09466 12.4437 1.33344 11.7896 1.46178C11.2653 0.904108 10.5179 0.555664 9.69268 0.555664C8.10679 0.555664 6.82035 1.84055 6.82035 3.42722C6.82035 3.652 6.84524 3.87133 6.89502 4.08211C4.50724 3.96155 2.3909 2.81822 0.974571 1.08144C0.727238 1.50533 0.585682 1.99922 0.585682 2.52422C0.585682 3.52133 1.09279 4.40022 1.86357 4.91511C1.39302 4.90033 0.949682 4.77122 0.562349 4.55655C0.562349 4.56822 0.562349 4.57989 0.562349 4.59233C0.562349 5.98378 1.55246 7.14578 2.86613 7.40866C2.62502 7.474 2.37146 7.509 2.10935 7.509C1.92502 7.509 1.74457 7.49266 1.56957 7.45844C1.93435 8.60022 2.99602 9.43011 4.25213 9.45344C3.26979 10.2234 2.03157 10.6823 0.686016 10.6823C0.45346 10.6823 0.225571 10.6683 0.000793457 10.6411C1.27168 11.457 2.78135 11.9314 4.40379 11.9314C9.68646 11.9314 12.5759 7.55489 12.5759 3.76011C12.5759 3.63489 12.5728 3.51044 12.5666 3.38755C13.1273 2.98466 13.615 2.47833 14 1.902Z" fill="black"/>
    </symbol>
    <symbol id="in1" viewBox="0 0 14 14">
            <path d="M3.17059 1.49635C3.17059 2.32318 2.56035 2.99271 1.55565 2.99271C0.610235 2.99353 0 2.324 0 1.49635C0 0.649765 0.63 0 1.59518 0C2.55953 0 3.15082 0.649765 3.17059 1.49635ZM0.0790588 13.804V4.17447H3.07176V13.8032H0.0790588V13.804Z" fill="black"/>
            <path d="M4.86296 7.24685C4.86296 6.04532 4.82426 5.04144 4.78473 4.17508H7.38379L7.52214 5.51414H7.58061C7.97426 4.88332 8.93943 3.9585 10.5536 3.9585C12.5226 3.95767 14 5.27697 14 8.1132V13.8038H11.0065V8.46732C11.0065 7.22708 10.5741 6.3805 9.49038 6.3805C8.66273 6.3805 8.17108 6.9512 7.95532 7.50297C7.87543 7.69979 7.85649 7.97567 7.85649 8.25073V13.8038H4.86296V7.24685Z" fill="black"/>
    </symbol>
</svg>